<?xml version="1.0" encoding="UTF-8"?>
<!DOCTYPE svg PUBLIC "-//W3C//DTD SVG 1.1//EN" "http://www.w3.org/Graphics/SVG/1.1/DTD/svg11.dtd">
<svg xmlns="http://www.w3.org/2000/svg" version="1.1" width="542px" height="461px" style="shape-rendering:geometricPrecision; text-rendering:geometricPrecision; image-rendering:optimizeQuality; fill-rule:evenodd; clip-rule:evenodd" xmlns:xlink="http://www.w3.org/1999/xlink">
<g><path style="opacity:1" fill="#f9f1ee" d="M 358.5,93.5 C 370.563,95.5745 379.563,101.908 385.5,112.5C 387.145,115.599 388.312,118.932 389,122.5C 389.817,179.189 389.65,235.855 388.5,292.5C 386.597,295.979 384.93,299.646 383.5,303.5C 381.413,304.585 380.08,306.251 379.5,308.5C 373.338,313.581 366.338,317.081 358.5,319C 302.501,319.5 246.501,319.667 190.5,319.5C 184.731,318.285 179.398,315.952 174.5,312.5C 167.024,306.548 162.357,298.881 160.5,289.5C 160.333,235.499 160.5,181.499 161,127.5C 161.415,129.291 162.415,130.624 164,131.5C 164.21,128.766 165.044,126.266 166.5,124C 163.714,121.979 164.047,120.479 167.5,119.5C 166.613,116.325 167.946,114.658 171.5,114.5C 171.5,113.5 171.5,112.5 171.5,111.5C 172.552,111.649 173.552,111.483 174.5,111C 174.167,110.667 173.833,110.333 173.5,110C 174.646,109.355 175.646,108.522 176.5,107.5C 177.086,107.709 177.586,108.043 178,108.5C 178.972,106.695 180.139,105.028 181.5,103.5C 184.139,104.137 186.472,103.303 188.5,101C 189.784,100.316 190.951,100.483 192,101.5C 192.667,98.8333 193.333,98.8333 194,101.5C 195.991,99.0945 198.324,98.4279 201,99.5C 202.487,98.7471 202.654,97.9138 201.5,97C 202.167,96.6667 202.833,96.3333 203.5,96C 200.5,95.6667 197.5,95.3333 194.5,95C 249.157,93.6555 303.824,93.1555 358.5,93.5 Z"/></g>
<g><path style="opacity:1" fill="#ece6ea" d="M 358.5,93.5 C 303.824,93.1555 249.157,93.6555 194.5,95C 197.5,95.3333 200.5,95.6667 203.5,96C 202.833,96.3333 202.167,96.6667 201.5,97C 202.654,97.9138 202.487,98.7471 201,99.5C 198.324,98.4279 195.991,99.0945 194,101.5C 193.333,98.8333 192.667,98.8333 192,101.5C 190.951,100.483 189.784,100.316 188.5,101C 186.472,103.303 184.139,104.137 181.5,103.5C 180.139,105.028 178.972,106.695 178,108.5C 177.586,108.043 177.086,107.709 176.5,107.5C 175.646,108.522 174.646,109.355 173.5,110C 173.833,110.333 174.167,110.667 174.5,111C 173.552,111.483 172.552,111.649 171.5,111.5C 171.5,112.5 171.5,113.5 171.5,114.5C 167.946,114.658 166.613,116.325 167.5,119.5C 164.047,120.479 163.714,121.979 166.5,124C 165.044,126.266 164.21,128.766 164,131.5C 162.415,130.624 161.415,129.291 161,127.5C 160.5,181.499 160.333,235.499 160.5,289.5C 158.894,235.322 158.727,180.989 160,126.5C 161.903,110.257 170.736,99.757 186.5,95C 194.782,93.8355 203.116,93.1689 211.5,93C 260.668,92.1684 309.668,92.335 358.5,93.5 Z"/></g>
<g><path style="opacity:1" fill="#986e43" d="M 387.5,113.5 C 389.404,113.738 390.738,114.738 391.5,116.5C 390.662,116.842 390.328,117.508 390.5,118.5C 389.263,117.035 388.263,115.368 387.5,113.5 Z"/></g>
<g><path style="opacity:1" fill="#c98531" d="M 391.5,116.5 C 393.5,117.833 395.167,119.5 396.5,121.5C 395.504,121.586 394.671,121.252 394,120.5C 393.517,121.448 393.351,122.448 393.5,123.5C 391.953,122.232 390.953,120.565 390.5,118.5C 390.328,117.508 390.662,116.842 391.5,116.5 Z"/></g>
<g><path style="opacity:1" fill="#4a4551" d="M 244.5,121.5 C 246.698,121.875 248.698,122.542 250.5,123.5C 230.523,122.561 210.523,122.228 190.5,122.5C 189.501,177.998 189.168,233.664 189.5,289.5C 198.167,289.5 206.833,289.5 215.5,289.5C 206.682,290.493 197.682,290.827 188.5,290.5C 188.5,234.167 188.5,177.833 188.5,121.5C 207.167,121.5 225.833,121.5 244.5,121.5 Z"/></g>
<g><path style="opacity:1" fill="#f18f10" d="M 396.5,121.5 C 398.129,122.625 399.629,123.959 401,125.5C 403.358,128.222 405.191,131.222 406.5,134.5C 406.737,137.647 407.57,140.647 409,143.5C 409.833,199.17 409.667,254.836 408.5,310.5C 407.192,313.706 406.525,317.04 406.5,320.5C 403.053,328.887 397.053,334.553 388.5,337.5C 385.784,337.678 383.117,338.178 380.5,339C 323.5,339.667 266.5,339.667 209.5,339C 207.655,337.872 205.655,337.372 203.5,337.5C 196.747,335.417 191.414,331.417 187.5,325.5C 187.821,323.952 188.821,323.285 190.5,323.5C 193.482,323.963 196.482,324.296 199.5,324.5C 254.332,325.665 309.332,325.832 364.5,325C 367.361,325.03 369.695,324.197 371.5,322.5C 371.842,321.662 372.508,321.328 373.5,321.5C 375.848,321.408 377.514,320.408 378.5,318.5C 381.141,316.196 383.808,313.862 386.5,311.5C 387.906,311.027 388.573,310.027 388.5,308.5C 391.451,307.191 392.784,304.857 392.5,301.5C 393.924,299.485 394.59,297.152 394.5,294.5C 394.829,238.762 394.496,183.095 393.5,127.5C 393.5,126.167 393.5,124.833 393.5,123.5C 393.351,122.448 393.517,121.448 394,120.5C 394.671,121.252 395.504,121.586 396.5,121.5 Z"/></g>
<g><path style="opacity:1" fill="#433f4b" d="M 287.5,131.5 C 287.628,133.655 287.128,135.655 286,137.5C 285.5,161.164 285.333,184.831 285.5,208.5C 301.342,208.17 317.009,208.504 332.5,209.5C 316.5,209.5 300.5,209.5 284.5,209.5C 284.333,185.164 284.5,160.831 285,136.5C 285.374,134.509 286.207,132.842 287.5,131.5 Z"/></g>
<g><path style="opacity:1" fill="#f7efed" d="M 215.5,147.5 C 215.833,147.5 216.167,147.5 216.5,147.5C 222.645,148.49 228.978,148.823 235.5,148.5C 235.5,161.833 235.5,175.167 235.5,188.5C 228.745,188.207 222.078,188.54 215.5,189.5C 215.5,175.5 215.5,161.5 215.5,147.5 Z"/></g>
<g><path style="opacity:1" fill="#e0d0bf" d="M 216.5,147.5 C 223.167,147.5 229.833,147.5 236.5,147.5C 236.5,161.833 236.5,176.167 236.5,190.5C 229.313,190.825 222.313,190.491 215.5,189.5C 222.078,188.54 228.745,188.207 235.5,188.5C 235.5,175.167 235.5,161.833 235.5,148.5C 228.978,148.823 222.645,148.49 216.5,147.5 Z"/></g>
<g><path style="opacity:1" fill="#343a58" d="M 359.5,140.5 C 360.473,142.948 360.806,145.615 360.5,148.5C 351.592,152.287 342.925,156.621 334.5,161.5C 332.564,157.285 331.897,152.619 332.5,147.5C 333.323,150.977 333.823,154.644 334,158.5C 334.333,155.5 334.667,152.5 335,149.5C 336.396,151.527 338.062,151.86 340,150.5C 343.696,153.425 347.029,153.092 350,149.5C 351.183,150.731 352.349,150.731 353.5,149.5C 352.975,148.808 352.308,148.308 351.5,148C 354.146,147.503 356.813,147.336 359.5,147.5C 359.5,145.167 359.5,142.833 359.5,140.5 Z"/></g>
<g><path style="opacity:1" fill="#26345d" d="M 190.5,122.5 C 210.523,122.228 230.523,122.561 250.5,123.5C 253.326,123.998 255.66,125.331 257.5,127.5C 258.014,129.366 258.68,131.2 259.5,133C 259.05,134.285 258.383,135.452 257.5,136.5C 258.826,136.205 260.159,136.705 261.5,138C 261.434,140.466 261.434,142.966 261.5,145.5C 261.167,146.5 260.5,147.167 259.5,147.5C 258.167,147.167 256.833,146.833 255.5,146.5C 251.704,147.288 247.871,147.954 244,148.5C 242.338,148.612 241.171,147.946 240.5,146.5C 236.333,146.167 232.167,145.833 228,145.5C 223.443,145.509 219.276,146.175 215.5,147.5C 215.5,161.5 215.5,175.5 215.5,189.5C 222.313,190.491 229.313,190.825 236.5,190.5C 238.045,189.77 238.878,188.437 239,186.5C 239.181,177.589 239.681,168.755 240.5,160C 239.346,159.086 239.513,158.253 241,157.5C 241.333,158.5 241.667,159.5 242,160.5C 242.741,159.359 243.575,159.359 244.5,160.5C 246.289,159.123 248.289,158.123 250.5,157.5C 253.131,158.344 255.631,158.677 258,158.5C 259,157.5 260,156.5 261,155.5C 261.188,166.546 261.688,177.546 262.5,188.5C 262.167,189.167 261.833,189.833 261.5,190.5C 259.234,191.314 256.9,191.814 254.5,192C 255.902,193.342 255.569,194.176 253.5,194.5C 251.912,193.99 250.745,192.99 250,191.5C 249.647,193.074 248.98,194.741 248,196.5C 247.259,195.359 246.425,195.359 245.5,196.5C 244.833,195.833 244.167,195.167 243.5,194.5C 243.089,195.262 242.923,196.262 243,197.5C 240.599,198.466 237.933,198.466 235,197.5C 234.641,200.544 233.974,200.878 233,198.5C 230.778,201.044 228.611,201.044 226.5,198.5C 226.194,202.712 224.694,203.378 222,200.5C 221,203.167 220,203.167 219,200.5C 217.415,201.376 216.415,202.709 216,204.5C 213.525,203.973 211.191,203.973 209,204.5C 208.581,205.672 207.915,206.672 207,207.5C 205.602,206.949 204.268,206.616 203,206.5C 202.333,209.167 201.667,209.167 201,206.5C 200.517,207.448 200.351,208.448 200.5,209.5C 198.473,209.338 196.473,209.505 194.5,210C 194.406,211.422 194.072,212.922 193.5,214.5C 192.749,213.624 192.249,212.624 192,211.5C 191.768,212.737 191.268,213.737 190.5,214.5C 190.5,183.833 190.5,153.167 190.5,122.5 Z"/></g>
<g><path style="opacity:1" fill="#dcc6b3" d="M 244.5,121.5 C 225.833,121.5 207.167,121.5 188.5,121.5C 188.5,177.833 188.5,234.167 188.5,290.5C 187.501,234.002 187.168,177.336 187.5,120.5C 206.674,120.17 225.674,120.503 244.5,121.5 Z"/></g>
<g><path style="opacity:0.827" fill="#c98532" d="M 406.5,134.5 C 408.129,136.858 409.295,139.524 410,142.5C 410.277,189.503 410.777,236.503 411.5,283.5C 411.533,292.868 411.033,302.201 410,311.5C 409.339,314.802 408.172,317.802 406.5,320.5C 406.525,317.04 407.192,313.706 408.5,310.5C 409.667,254.836 409.833,199.17 409,143.5C 407.57,140.647 406.737,137.647 406.5,134.5 Z"/></g>
<g><path style="opacity:1" fill="#ded2ce" d="M 332.5,147.5 C 331.897,152.619 332.564,157.285 334.5,161.5C 333.791,162.404 332.791,162.737 331.5,162.5C 331.5,157.833 331.5,153.167 331.5,148.5C 325.167,148.5 318.833,148.5 312.5,148.5C 312.5,160.5 312.5,172.5 312.5,184.5C 328.675,184.17 344.675,184.504 360.5,185.5C 344.167,185.5 327.833,185.5 311.5,185.5C 311.5,172.833 311.5,160.167 311.5,147.5C 318.5,147.5 325.5,147.5 332.5,147.5 Z"/></g>
<g><path style="opacity:1" fill="#2a365c" d="M 359.5,140.5 C 359.5,142.833 359.5,145.167 359.5,147.5C 356.813,147.336 354.146,147.503 351.5,148C 352.308,148.308 352.975,148.808 353.5,149.5C 352.349,150.731 351.183,150.731 350,149.5C 347.029,153.092 343.696,153.425 340,150.5C 338.062,151.86 336.396,151.527 335,149.5C 334.667,152.5 334.333,155.5 334,158.5C 333.823,154.644 333.323,150.977 332.5,147.5C 325.5,147.5 318.5,147.5 311.5,147.5C 311.5,160.167 311.5,172.833 311.5,185.5C 327.833,185.5 344.167,185.5 360.5,185.5C 360.667,214.169 360.5,242.835 360,271.5C 359.03,278.267 355.864,283.601 350.5,287.5C 347.821,288.226 345.154,289.059 342.5,290C 327.789,290.8 313.122,290.633 298.5,289.5C 292.615,287.452 288.448,283.452 286,277.5C 284.424,268.911 284.09,260.244 285,251.5C 293.475,247.013 301.975,242.679 310.5,238.5C 311.493,246.984 311.826,255.651 311.5,264.5C 318.687,264.825 325.687,264.491 332.5,263.5C 332.5,245.5 332.5,227.5 332.5,209.5C 317.009,208.504 301.342,208.17 285.5,208.5C 285.333,184.831 285.5,161.164 286,137.5C 287.128,135.655 287.628,133.655 287.5,131.5C 290.652,126.193 295.319,123.027 301.5,122C 315.167,121.333 328.833,121.333 342.5,122C 352.875,123.874 358.541,130.04 359.5,140.5 Z"/></g>
<g><path style="opacity:1" fill="#4d474b" d="M 385.5,112.5 C 386.492,112.328 387.158,112.662 387.5,113.5C 388.263,115.368 389.263,117.035 390.5,118.5C 390.953,120.565 391.953,122.232 393.5,123.5C 393.5,124.833 393.5,126.167 393.5,127.5C 392.85,127.196 392.183,126.863 391.5,126.5C 390.667,181.164 390.167,235.83 390,290.5C 389.722,291.416 389.222,292.082 388.5,292.5C 389.65,235.855 389.817,179.189 389,122.5C 388.312,118.932 387.145,115.599 385.5,112.5 Z"/></g>
<g><path style="opacity:1" fill="#2a375d" d="M 257.5,127.5 C 262.111,131.736 264.278,137.07 264,143.5C 264.667,163.833 264.667,184.167 264,204.5C 256.928,207.952 250.094,211.785 243.5,216C 252.926,237.349 261.926,258.849 270.5,280.5C 271.136,283.106 271.136,285.606 270.5,288C 262.841,288.5 255.174,288.666 247.5,288.5C 246.573,284.64 245.073,280.973 243,277.5C 242.506,275.866 242.34,274.199 242.5,272.5C 241.5,272.5 240.5,272.5 239.5,272.5C 237.987,268.814 236.32,265.147 234.5,261.5C 231.679,253.203 228.345,245.203 224.5,237.5C 223.055,234.676 221.889,231.676 221,228.5C 219.586,227.587 218.086,227.587 216.5,228.5C 214.512,248.139 213.845,268.139 214.5,288.5C 206.5,288.5 198.5,288.5 190.5,288.5C 190.5,263.833 190.5,239.167 190.5,214.5C 191.268,213.737 191.768,212.737 192,211.5C 192.249,212.624 192.749,213.624 193.5,214.5C 194.072,212.922 194.406,211.422 194.5,210C 196.473,209.505 198.473,209.338 200.5,209.5C 200.351,208.448 200.517,207.448 201,206.5C 201.667,209.167 202.333,209.167 203,206.5C 204.268,206.616 205.602,206.949 207,207.5C 207.915,206.672 208.581,205.672 209,204.5C 211.191,203.973 213.525,203.973 216,204.5C 216.415,202.709 217.415,201.376 219,200.5C 220,203.167 221,203.167 222,200.5C 224.694,203.378 226.194,202.712 226.5,198.5C 228.611,201.044 230.778,201.044 233,198.5C 233.974,200.878 234.641,200.544 235,197.5C 237.933,198.466 240.599,198.466 243,197.5C 242.923,196.262 243.089,195.262 243.5,194.5C 244.167,195.167 244.833,195.833 245.5,196.5C 246.425,195.359 247.259,195.359 248,196.5C 248.98,194.741 249.647,193.074 250,191.5C 250.745,192.99 251.912,193.99 253.5,194.5C 255.569,194.176 255.902,193.342 254.5,192C 256.9,191.814 259.234,191.314 261.5,190.5C 261.833,189.833 262.167,189.167 262.5,188.5C 261.688,177.546 261.188,166.546 261,155.5C 260,156.5 259,157.5 258,158.5C 255.631,158.677 253.131,158.344 250.5,157.5C 248.289,158.123 246.289,159.123 244.5,160.5C 243.575,159.359 242.741,159.359 242,160.5C 241.667,159.5 241.333,158.5 241,157.5C 239.513,158.253 239.346,159.086 240.5,160C 239.681,168.755 239.181,177.589 239,186.5C 238.878,188.437 238.045,189.77 236.5,190.5C 236.5,176.167 236.5,161.833 236.5,147.5C 229.833,147.5 223.167,147.5 216.5,147.5C 216.167,147.5 215.833,147.5 215.5,147.5C 219.276,146.175 223.443,145.509 228,145.5C 232.167,145.833 236.333,146.167 240.5,146.5C 241.171,147.946 242.338,148.612 244,148.5C 247.871,147.954 251.704,147.288 255.5,146.5C 256.833,146.833 258.167,147.167 259.5,147.5C 260.5,147.167 261.167,146.5 261.5,145.5C 261.434,142.966 261.434,140.466 261.5,138C 260.159,136.705 258.826,136.205 257.5,136.5C 258.383,135.452 259.05,134.285 259.5,133C 258.68,131.2 258.014,129.366 257.5,127.5 Z"/></g>
<g><path style="opacity:1" fill="#283152" d="M 190.5,122.5 C 190.5,153.167 190.5,183.833 190.5,214.5C 190.5,239.167 190.5,263.833 190.5,288.5C 198.5,288.5 206.5,288.5 214.5,288.5C 213.845,268.139 214.512,248.139 216.5,228.5C 215.512,248.758 215.179,269.091 215.5,289.5C 206.833,289.5 198.167,289.5 189.5,289.5C 189.168,233.664 189.501,177.998 190.5,122.5 Z"/></g>
<g><path style="opacity:1" fill="#c7b5a4" d="M 284.5,209.5 C 300.5,209.5 316.5,209.5 332.5,209.5C 332.5,227.5 332.5,245.5 332.5,263.5C 332.167,263.5 331.833,263.5 331.5,263.5C 331.5,245.833 331.5,228.167 331.5,210.5C 315.658,210.83 299.991,210.496 284.5,209.5 Z"/></g>
<g><path style="opacity:1" fill="#dccec2" d="M 224.5,237.5 C 228.345,245.203 231.679,253.203 234.5,261.5C 233.883,261.611 233.383,261.944 233,262.5C 231.426,256.018 228.759,250.018 225,244.5C 224.503,242.19 224.337,239.857 224.5,237.5 Z"/></g>
<g><path style="opacity:1" fill="#beb3b1" d="M 310.5,238.5 C 310.56,237.957 310.893,237.624 311.5,237.5C 312.498,246.141 312.831,254.808 312.5,263.5C 318.833,263.5 325.167,263.5 331.5,263.5C 331.833,263.5 332.167,263.5 332.5,263.5C 325.687,264.491 318.687,264.825 311.5,264.5C 311.826,255.651 311.493,246.984 310.5,238.5 Z"/></g>
<g><path style="opacity:1" fill="#31344d" d="M 239.5,272.5 C 240.5,272.5 241.5,272.5 242.5,272.5C 242.34,274.199 242.506,275.866 243,277.5C 245.073,280.973 246.573,284.64 247.5,288.5C 255.174,288.666 262.841,288.5 270.5,288C 271.136,285.606 271.136,283.106 270.5,280.5C 272.065,282.509 273.065,284.843 273.5,287.5C 264.895,289.471 255.895,290.138 246.5,289.5C 246.34,287.847 245.674,286.514 244.5,285.5C 243.028,281.083 241.362,276.75 239.5,272.5 Z"/></g>
<g><path style="opacity:1" fill="#313756" d="M 393.5,127.5 C 394.496,183.095 394.829,238.762 394.5,294.5C 393.076,296.515 392.41,298.848 392.5,301.5C 390.412,303.336 389.079,305.669 388.5,308.5C 387.094,308.973 386.427,309.973 386.5,311.5C 383.808,313.862 381.141,316.196 378.5,318.5C 376.326,318.75 374.659,319.75 373.5,321.5C 372.508,321.328 371.842,321.662 371.5,322.5C 368.833,322.833 366.167,323.167 363.5,323.5C 308.166,323.667 252.832,323.5 197.5,323C 194.173,322.39 190.839,321.89 187.5,321.5C 186.833,321.5 186.5,321.167 186.5,320.5C 187.568,319.566 188.901,319.232 190.5,319.5C 246.501,319.667 302.501,319.5 358.5,319C 366.338,317.081 373.338,313.581 379.5,308.5C 381.587,307.415 382.92,305.749 383.5,303.5C 384.75,303.423 385.583,302.756 386,301.5C 387.43,298.647 388.263,295.647 388.5,292.5C 389.222,292.082 389.722,291.416 390,290.5C 390.167,235.83 390.667,181.164 391.5,126.5C 392.183,126.863 392.85,127.196 393.5,127.5 Z"/></g>
<g><path style="opacity:1" fill="#766761" d="M 273.5,287.5 C 274.338,287.842 274.672,288.508 274.5,289.5C 265.167,290.833 255.833,290.833 246.5,289.5C 255.895,290.138 264.895,289.471 273.5,287.5 Z"/></g>
<g><path style="opacity:1" fill="#ebd9c9" d="M 244.5,285.5 C 245.674,286.514 246.34,287.847 246.5,289.5C 255.833,290.833 265.167,290.833 274.5,289.5C 275.043,289.56 275.376,289.893 275.5,290.5C 265.5,291.833 255.5,291.833 245.5,290.5C 244.691,288.929 244.357,287.262 244.5,285.5 Z"/></g>
<g><path style="opacity:1" fill="#f1e0d1" d="M 350.5,287.5 C 350.056,289.113 349.056,290.28 347.5,291C 331.5,291.667 315.5,291.667 299.5,291C 298.944,290.617 298.611,290.117 298.5,289.5C 313.122,290.633 327.789,290.8 342.5,290C 345.154,289.059 347.821,288.226 350.5,287.5 Z"/></g>
<g><path style="opacity:1" fill="#bc7e34" d="M 394.5,294.5 C 394.59,297.152 393.924,299.485 392.5,301.5C 392.41,298.848 393.076,296.515 394.5,294.5 Z"/></g>
<g><path style="opacity:1" fill="#4b434d" d="M 388.5,292.5 C 388.263,295.647 387.43,298.647 386,301.5C 385.583,302.756 384.75,303.423 383.5,303.5C 384.93,299.646 386.597,295.979 388.5,292.5 Z"/></g>
<g><path style="opacity:1" fill="#c7822e" d="M 392.5,301.5 C 392.784,304.857 391.451,307.191 388.5,308.5C 389.079,305.669 390.412,303.336 392.5,301.5 Z"/></g>
<g><path style="opacity:1" fill="#5d524f" d="M 383.5,303.5 C 382.92,305.749 381.587,307.415 379.5,308.5C 380.08,306.251 381.413,304.585 383.5,303.5 Z"/></g>
<g><path style="opacity:1" fill="#b27833" d="M 388.5,308.5 C 388.573,310.027 387.906,311.027 386.5,311.5C 386.427,309.973 387.094,308.973 388.5,308.5 Z"/></g>
<g><path style="opacity:0.773" fill="#67564d" d="M 174.5,312.5 C 179.398,315.952 184.731,318.285 190.5,319.5C 188.901,319.232 187.568,319.566 186.5,320.5C 184.5,319.833 182.5,319.167 180.5,318.5C 178.167,316.833 176.167,314.833 174.5,312.5 Z"/></g>
<g><path style="opacity:1" fill="#b57833" d="M 378.5,318.5 C 377.514,320.408 375.848,321.408 373.5,321.5C 374.659,319.75 376.326,318.75 378.5,318.5 Z"/></g>
<g><path style="opacity:1" fill="#d28a32" d="M 180.5,318.5 C 182.5,319.167 184.5,319.833 186.5,320.5C 186.5,321.167 186.833,321.5 187.5,321.5C 188.5,322.167 189.5,322.833 190.5,323.5C 188.821,323.285 187.821,323.952 187.5,325.5C 184.833,323.5 182.5,321.167 180.5,318.5 Z"/></g>
<g><path style="opacity:1" fill="#363342" d="M 187.5,321.5 C 190.839,321.89 194.173,322.39 197.5,323C 252.832,323.5 308.166,323.667 363.5,323.5C 309.003,324.499 254.336,324.832 199.5,324.5C 196.482,324.296 193.482,323.963 190.5,323.5C 189.5,322.833 188.5,322.167 187.5,321.5 Z"/></g>
<g><path style="opacity:1" fill="#ac7431" d="M 371.5,322.5 C 369.695,324.197 367.361,325.03 364.5,325C 309.332,325.832 254.332,325.665 199.5,324.5C 254.336,324.832 309.003,324.499 363.5,323.5C 366.167,323.167 368.833,322.833 371.5,322.5 Z"/></g>
<g><path style="opacity:0.904" fill="#c7812f" d="M 203.5,337.5 C 205.655,337.372 207.655,337.872 209.5,339C 266.5,339.667 323.5,339.667 380.5,339C 383.117,338.178 385.784,337.678 388.5,337.5C 384.237,339.797 379.571,340.964 374.5,341C 321.833,341.667 269.167,341.667 216.5,341C 211.713,341.043 207.379,339.877 203.5,337.5 Z"/></g>
</svg>
